<svg id="visual" viewBox="0 0 900 450" width="900" height="450" xmlns="http://www.w3.org/2000/svg" xmlns:xlink="http://www.w3.org/1999/xlink" version="1.1"><rect x="0" y="0" width="900" height="450" fill="#001220"></rect><defs><linearGradient id="grad1_0" x1="50%" y1="100%" x2="100%" y2="0%"><stop offset="10%" stop-color="#001220" stop-opacity="1"></stop><stop offset="90%" stop-color="#001220" stop-opacity="1"></stop></linearGradient></defs><defs><linearGradient id="grad2_0" x1="0%" y1="100%" x2="50%" y2="0%"><stop offset="10%" stop-color="#001220" stop-opacity="1"></stop><stop offset="90%" stop-color="#001220" stop-opacity="1"></stop></linearGradient></defs><g transform="translate(900, 450)"><path d="M-202.5 0C-201.1 -18.3 -199.7 -36.6 -191.3 -51.2C-182.8 -65.9 -167.3 -77 -158.5 -91.5C-149.6 -106 -147.4 -123.8 -139.3 -139.3C-131.2 -154.8 -117.2 -168.1 -101.3 -175.4C-85.3 -182.6 -67.4 -183.9 -50.2 -187.4C-33 -190.9 -16.5 -196.7 0 -202.5L0 0Z" fill="#00a985"></path></g><g transform="translate(0, 0)"><path d="M202.5 0C200.3 18 198.1 35.9 191.3 51.2C184.4 66.6 172.8 79.2 165.4 95.5C158 111.8 154.7 131.6 143.2 143.2C131.6 154.7 111.8 158 95.5 165.4C79.2 172.8 66.6 184.4 51.2 191.3C35.9 198.1 18 200.3 0 202.5L0 0Z" fill="#00a985"></path></g></svg>